<?xml version="1.0" encoding="UTF-8" standalone="no"?>
<!-- Created with Inkscape (http://www.inkscape.org/) -->

<svg
   sodipodi:docname="beta-espresso-off-symbolic.svg"
   height="16"
   id="svg7384"
   inkscape:version="1.2.1 (9c6d41e410, 2022-07-14, custom)"
   version="1.1"
   width="16"
   xmlns:inkscape="http://www.inkscape.org/namespaces/inkscape"
   xmlns:sodipodi="http://sodipodi.sourceforge.net/DTD/sodipodi-0.dtd"
   xmlns:xlink="http://www.w3.org/1999/xlink"
   xmlns="http://www.w3.org/2000/svg"
   xmlns:svg="http://www.w3.org/2000/svg"
   xmlns:rdf="http://www.w3.org/1999/02/22-rdf-syntax-ns#"
   xmlns:cc="http://creativecommons.org/ns#"
   xmlns:dc="http://purl.org/dc/elements/1.1/">
  <metadata
     id="metadata90">
    <rdf:RDF>
      <cc:Work
         rdf:about="">
        <dc:format>image/svg+xml</dc:format>
        <dc:type
           rdf:resource="http://purl.org/dc/dcmitype/StillImage" />
        <dc:title>Gnome Symbolic Icon Theme</dc:title>
      </cc:Work>
    </rdf:RDF>
  </metadata>
  <sodipodi:namedview
     inkscape:bbox-paths="false"
     bordercolor="#666666"
     borderopacity="1"
     inkscape:current-layer="layer2"
     inkscape:cx="6.09375"
     inkscape:cy="6.390625"
     gridtolerance="10"
     inkscape:guide-bbox="true"
     guidetolerance="10"
     id="namedview88"
     inkscape:object-nodes="false"
     inkscape:object-paths="false"
     objecttolerance="10"
     pagecolor="#555753"
     inkscape:pageopacity="1"
     inkscape:pageshadow="2"
     showborder="false"
     showgrid="true"
     showguides="true"
     inkscape:snap-bbox="true"
     inkscape:snap-bbox-midpoints="false"
     inkscape:snap-global="true"
     inkscape:snap-grids="true"
     inkscape:snap-nodes="false"
     inkscape:snap-others="false"
     inkscape:snap-to-guides="true"
     inkscape:window-height="1307"
     inkscape:window-maximized="1"
     inkscape:window-width="3440"
     inkscape:window-x="0"
     inkscape:window-y="28"
     inkscape:zoom="32"
     inkscape:showpageshadow="2"
     inkscape:pagecheckerboard="0"
     inkscape:deskcolor="#555753">
    <inkscape:grid
       empspacing="2"
       enabled="true"
       id="grid4866"
       originx="-42.000009"
       originy="412"
       snapvisiblegridlinesonly="true"
       spacingx="1"
       spacingy="1"
       type="xygrid"
       visible="true" />
    <sodipodi:guide
       orientation="0,1"
       position="3.4692426,9.4354561"
       id="guide4029"
       inkscape:locked="false" />
  </sodipodi:namedview>
  <title
     id="title9167">Gnome Symbolic Icon Theme</title>
  <defs
     id="defs7386" />
  <g
     inkscape:groupmode="layer"
     id="layer9"
     inkscape:label="status"
     style="display:inline"
     transform="translate(-283.00021,-629)" />
  <g
     inkscape:groupmode="layer"
     id="layer10"
     inkscape:label="devices"
     transform="translate(-283.00021,-629)" />
  <g
     inkscape:groupmode="layer"
     id="layer11"
     inkscape:label="apps"
     style="display:inline"
     transform="translate(-283.00021,-629)" />
  <g
     inkscape:groupmode="layer"
     id="layer1"
     inkscape:label="on"
     style="display:none">
    <path
       id="path4114"
       style="fill:none;stroke:#ffffff;stroke-width:1.29999995;stroke-linecap:butt;stroke-linejoin:miter;stroke-miterlimit:4;stroke-opacity:1;stroke-dasharray:none;display:inline"
       d="m 4.2625534,6.1750293 c 0,0 1.1491587,-0.6278903 1.1863897,-1.6606918 C 5.4861331,3.4826637 4.4603025,2.976995 4.4672485,2.0317235 4.4736485,1.1539862 5.6337624,0.28329388 5.6337624,0.28329388"
       inkscape:connector-curvature="0"
       sodipodi:nodetypes="cscc" />
    <use
       x="0"
       y="0"
       xlink:href="#path4114"
       id="use4118"
       transform="translate(3.3258259,0)"
       width="16"
       height="16" />
  </g>
  <g
     inkscape:groupmode="layer"
     id="layer2"
     inkscape:label="off"
     style="display:inline">
    <g
       id="g246"
       transform="rotate(180,8.044647,8.7471548)">
      <g
         id="g157"
         style="display:inline"
         transform="translate(-283.00021,-629)">
        <path
           inkscape:connector-curvature="0"
           d="m 283.12476,634.39715 c 0.0901,2.39982 -2.5e-4,4.90096 0.90536,7.16242 0.56561,1.4515 1.83385,2.55431 3.30794,2.90589 1.73814,0.41114 3.64376,0.40412 5.29688,-0.34623 1.60312,-0.72608 2.57953,-2.39439 2.98402,-4.09315 0.48766,-1.97915 0.54999,-4.03862 0.59785,-6.06897 -0.18011,-1.15523 -1.25844,-1.84731 -2.20555,-2.3009 -2.30084,-1.01772 -4.91035,-1.09851 -7.34309,-0.60961 -1.29974,0.30095 -2.77781,0.86169 -3.36661,2.20531 -0.1485,0.35955 -0.20354,0.75631 -0.1768,1.14524 z m 11.6374,0.11136 c -0.0441,0.91126 -0.96505,1.35565 -1.68872,1.6268 -1.99848,0.66073 -4.17612,0.68978 -6.22022,0.24168 -0.87456,-0.24018 -1.9114,-0.56182 -2.32332,-1.47943 -0.29096,-0.86897 0.46051,-1.62212 1.18574,-1.91228 1.63288,-0.67936 3.44794,-0.70226 5.17963,-0.56565 1.19133,0.15082 2.47787,0.35598 3.42954,1.17357 0.24954,0.23294 0.4418,0.55854 0.43735,0.91531 z"
           id="path24839-7-0-8"
           style="color:#000000;font-style:normal;font-variant:normal;font-weight:normal;font-stretch:normal;font-size:medium;line-height:normal;font-family:Sans;-inkscape-font-specification:Sans;text-indent:0;text-align:start;text-decoration:none;text-decoration-line:none;letter-spacing:normal;word-spacing:normal;text-transform:none;writing-mode:lr-tb;direction:ltr;baseline-shift:baseline;text-anchor:start;display:inline;overflow:visible;visibility:visible;fill:#bebebe;fill-opacity:1;fill-rule:nonzero;stroke:none;stroke-width:2.15345;marker:none;enable-background:new" />
        <path
           style="color:#000000;font-style:normal;font-variant:normal;font-weight:normal;font-stretch:normal;font-size:medium;line-height:normal;font-family:Sans;-inkscape-font-specification:Sans;text-indent:0;text-align:start;text-decoration:none;text-decoration-line:none;letter-spacing:normal;word-spacing:normal;text-transform:none;writing-mode:lr-tb;direction:ltr;baseline-shift:baseline;text-anchor:start;display:inline;overflow:visible;visibility:visible;fill:#bebebe;fill-opacity:1;stroke:none;stroke-width:1.645;marker:none;enable-background:accumulate"
           d="m 296.01831,634.29869 c -0.42246,0.1058 -0.81557,0.29843 -1.20581,0.48706 0.25,0.48958 0.5,0.97917 0.75,1.46875 0.52953,-0.26079 1.07925,-0.48948 1.65621,-0.62136 0.19598,0.29034 0.0613,0.65559 0.0965,0.98001 -0.0265,0.76535 -0.0891,1.53332 -0.2618,2.281 -0.19796,0.24661 -0.50311,0.0211 -0.71411,-0.0864 -0.30932,-0.0721 -0.53729,-0.31117 -0.83024,-0.41286 -0.12503,-0.008 -0.14438,0.15951 -0.217,0.23727 -0.23278,0.37411 -0.46557,0.74823 -0.69835,1.12235 0.81565,0.49866 1.72225,0.99381 2.70984,0.93005 0.59894,-0.0615 1.14074,-0.51865 1.25926,-1.11639 0.18671,-0.66571 0.27615,-1.35495 0.35899,-2.03989 0.0715,-0.82121 0.0983,-1.67218 -0.1491,-2.46792 -0.15932,-0.48309 -0.5391,-0.9535 -1.0785,-0.99879 -0.5706,-0.0824 -1.12444,0.12918 -1.67588,0.23714 z"
           id="path6047"
           inkscape:connector-curvature="0" />
        <path
           style="fill:#008000;stroke-width:0.03125"
           d="M 6.0036981,15.702797 C 5.2601609,15.645622 4.3993516,15.488962 3.9361437,15.326518 2.7266447,14.902357 1.7807755,14.06062 1.2164599,12.90625 0.65662372,11.761043 0.34796035,10.290439 0.23588537,8.234375 0.18507227,7.3021866 0.13118701,5.240185 0.15054642,4.96875 0.19194183,4.3883519 0.46475672,3.8394555 0.950445,3.359375 1.6040229,2.7133434 2.7297809,2.2210831 4.0919625,1.9856834 6.4693066,1.5748528 8.7723928,1.7681509 10.672451,2.5379842 c 1.532063,0.620735 2.456957,1.5374856 2.523296,2.5010783 0.0086,0.1246094 0.02179,0.2265625 0.02937,0.2265625 0.0076,0 0.168975,-0.035743 0.358668,-0.079428 0.702314,-0.161741 1.119998,-0.1641154 1.454811,-0.00827 0.215242,0.1001884 0.476224,0.3747437 0.608827,0.6404909 0.260642,0.5223478 0.361136,1.4379409 0.27369,2.4935878 -0.07949,0.9596703 -0.319268,2.2179133 -0.489203,2.5671593 -0.16583,0.340813 -0.545367,0.647444 -0.927228,0.749118 -0.424751,0.113095 -1.142647,-0.0043 -1.810578,-0.296099 -0.109883,-0.048 -0.152973,-0.05515 -0.162167,-0.0269 -0.366658,1.126426 -0.67626,1.755257 -1.188261,2.41347 -0.264864,0.340501 -0.764152,0.812889 -1.084394,1.025971 -0.6848689,0.455696 -1.6202876,0.779864 -2.6198917,0.90792 -0.4695072,0.06015 -1.2103434,0.08286 -1.6356922,0.05016 z M 14.009142,9.9609375 c 0.147927,-0.12853 0.317983,-1.5381966 0.318674,-2.6416288 3.37e-4,-0.5407484 -0.03961,-0.7299043 -0.147498,-0.698384 -0.03042,0.00889 -0.139693,0.039712 -0.242818,0.068495 -0.103125,0.028783 -0.323753,0.1023441 -0.490284,0.1634684 l -0.302783,0.111135 -0.01659,0.1898635 c -0.0091,0.1044247 -0.03821,0.4749443 -0.06465,0.8233772 -0.02643,0.3484328 -0.07636,0.8538987 -0.110941,1.1232578 -0.05081,0.3957112 -0.05526,0.4972209 -0.02319,0.528685 0.02183,0.021418 0.208438,0.1169309 0.414688,0.2122518 0.401504,0.1855606 0.557168,0.2135126 0.665392,0.1194791 z M 7.234375,7.6717284 C 8.1073222,7.6195203 8.9180994,7.4875284 9.65625,7.2774547 10.095746,7.1523766 10.284524,7.0812419 10.625,6.9124125 11.133925,6.6600556 11.488281,6.3458103 11.661138,5.9935575 11.740796,5.8312306 11.749981,5.7801716 11.749927,5.5 11.749864,5.2090606 11.742949,5.1742569 11.649619,4.9955525 11.401178,4.5198493 10.757473,4.0859337 9.8721828,3.7973983 8.5338775,3.3612155 6.3166694,3.2156533 4.65625,3.4549663 4.0940331,3.5359975 3.6331597,3.6456562 3.125,3.8193065 2.5719754,4.0082883 2.2803752,4.1660789 1.9996242,4.4282694 1.09685,5.2713609 1.3308633,6.2916222 2.5743174,6.9338409 c 0.7324379,0.3782894 1.9981635,0.6618419 3.2841623,0.73573 0.6242712,0.035868 0.8074359,0.036155 1.3758953,0.00216 z"
           id="path363"
           transform="translate(283.00021,629)" />
        <path
           style="fill:#008000;stroke-width:0.03125"
           d="M 5.578125,6.9031281 C 3.7814911,6.7408584 2.5676997,6.3091374 2.2567296,5.7217751 2.1518401,5.5236592 2.1592135,5.1731167 2.272317,4.9807222 2.5281153,4.5455974 3.1443023,4.2073029 4.109375,3.9721541 5.5445544,3.6224594 7.18136,3.5994061 8.6442788,3.9082831 9.6534963,4.1213666 10.357235,4.423183 10.752622,4.8125 11.159862,5.2134868 11.134175,5.6716667 10.679075,6.1243605 10.26595,6.5353025 9.5152763,6.7566929 8.1875,6.8591819 7.7600616,6.892175 5.8188344,6.9248684 5.578125,6.9031281 Z"
           id="path365"
           transform="translate(283.00021,629)" />
        <path
           style="fill:#008000;stroke-width:0.03125"
           d="M 5.578125,6.9031281 C 3.715376,6.7348869 2.5013312,6.2855053 2.2346217,5.6655222 2.1495426,5.4677506 2.1592609,5.1928052 2.2581778,4.9990809 2.3406209,4.8376196 2.6406922,4.5545165 2.8639262,4.4275858 3.7445578,3.9268591 5.5086197,3.6194145 7.0204825,3.7031718 9.1102325,3.8189441 10.752947,4.4280685 11.00262,5.1797624 11.150092,5.6237584 10.82653,6.1436169 10.21875,6.4391851 9.7768231,6.6540977 9.1408663,6.7855931 8.1875,6.8591819 7.7600616,6.892175 5.8188344,6.9248684 5.578125,6.9031281 Z"
           id="path367"
           transform="translate(283.00021,629)" />
        <path
           style="fill:#008000;stroke-width:0.03125"
           d="M 5.578125,6.9031281 C 3.7781592,6.7405574 2.5682764,6.3102267 2.2567296,5.7217751 2.1518401,5.5236592 2.1592135,5.1731167 2.272317,4.9807222 2.3765388,4.8034361 2.6464528,4.5526365 2.8717626,4.4237272 3.7378081,3.9282262 5.5140969,3.6197179 7.0204825,3.7031718 8.9604822,3.810648 10.539034,4.3493022 10.945975,5.0426802 11.066643,5.2482835 11.065922,5.5231444 10.944065,5.771287 10.628929,6.4130152 9.8171403,6.7333925 8.1874991,6.8591819 7.7600606,6.892175 5.8188334,6.9248684 5.5781241,6.9031281 Z"
           id="path369"
           transform="translate(283.00021,629)" />
        <path
           style="fill:#008000;stroke-width:0.03125"
           d="M 5.578125,6.9031281 C 3.7781592,6.7405574 2.5682764,6.3102267 2.2567296,5.7217751 2.1518401,5.5236592 2.1592135,5.1731167 2.272317,4.9807222 2.3823013,4.7936338 2.6569471,4.5440883 2.9006145,4.4098456 3.7861932,3.9219575 5.5399931,3.6211515 7.0206934,3.7031832 c 1.706846,0.09456 3.1446576,0.5210459 3.7320796,1.1070146 0.405846,0.4048418 0.380892,0.8618435 -0.07178,1.3145127 C 10.272437,6.5332697 9.5134456,6.7568342 8.1875,6.8591819 7.7600616,6.892175 5.8188344,6.9248684 5.578125,6.9031281 Z"
           id="path371"
           transform="translate(283.00021,629)" />
        <path
           style="fill:#008000;stroke-width:0.03125"
           d="M 5.578125,6.9031281 C 3.7814911,6.7408584 2.5676997,6.3091374 2.2567296,5.7217751 2.1518401,5.5236592 2.1592135,5.1731167 2.272317,4.9807222 2.5281153,4.5455974 3.1443023,4.2073029 4.109375,3.9721541 5.5445544,3.6224594 7.18136,3.5994061 8.6442788,3.9082831 9.6534963,4.1213666 10.357235,4.423183 10.752622,4.8125 11.159862,5.2134868 11.134175,5.6716667 10.679075,6.1243605 10.26595,6.5353025 9.5152763,6.7566929 8.1875,6.8591819 7.7600616,6.892175 5.8188344,6.9248684 5.578125,6.9031281 Z"
           id="path373"
           transform="translate(283.00021,629)" />
        <path
           style="fill:#008000;stroke-width:0.03125"
           d="M 5.578125,6.9031281 C 3.7814911,6.7408584 2.5676997,6.3091374 2.2567296,5.7217751 2.1518401,5.5236592 2.1592135,5.1731167 2.272317,4.9807222 2.5281153,4.5455974 3.1443023,4.2073029 4.109375,3.9721541 5.5445544,3.6224594 7.18136,3.5994061 8.6442788,3.9082831 9.6534963,4.1213666 10.357235,4.423183 10.752622,4.8125 11.159862,5.2134868 11.134175,5.6716667 10.679075,6.1243605 10.26595,6.5353025 9.5152763,6.7566929 8.1875,6.8591819 7.7600616,6.892175 5.8188344,6.9248684 5.578125,6.9031281 Z"
           id="path375"
           transform="translate(283.00021,629)" />
        <path
           style="fill:#008000;stroke-width:0.03125"
           d="M 5.578125,6.9031281 C 3.7814911,6.7408584 2.5676997,6.3091374 2.2567296,5.7217751 2.1518401,5.5236592 2.1592135,5.1731167 2.272317,4.9807222 2.5281153,4.5455974 3.1443023,4.2073029 4.109375,3.9721541 5.5445544,3.6224594 7.18136,3.5994061 8.6442788,3.9082831 9.6534963,4.1213666 10.357235,4.423183 10.752622,4.8125 11.159862,5.2134868 11.134175,5.6716667 10.679075,6.1243605 10.26595,6.5353025 9.5152763,6.7566929 8.1875,6.8591819 7.7600616,6.892175 5.8188344,6.9248684 5.578125,6.9031281 Z"
           id="path377"
           transform="translate(283.00021,629)" />
        <path
           style="fill:#008000;stroke-width:0.03125"
           d="M 5.578125,6.9031281 C 3.7814911,6.7408584 2.5676997,6.3091374 2.2567296,5.7217751 2.1518401,5.5236592 2.1592135,5.1731167 2.272317,4.9807222 2.5281153,4.5455974 3.1443023,4.2073029 4.109375,3.9721541 5.5445544,3.6224594 7.18136,3.5994061 8.6442788,3.9082831 9.6534963,4.1213666 10.357235,4.423183 10.752622,4.8125 11.159862,5.2134868 11.134175,5.6716667 10.679075,6.1243605 10.26595,6.5353025 9.5152763,6.7566929 8.1875,6.8591819 7.7600616,6.892175 5.8188344,6.9248684 5.578125,6.9031281 Z"
           id="path379"
           transform="translate(283.00021,629)" />
        <path
           style="fill:#008000;stroke-width:0.03125"
           d="M 5.578125,6.9031281 C 3.7814911,6.7408584 2.5676997,6.3091374 2.2567296,5.7217751 2.1518401,5.5236592 2.1592135,5.1731167 2.272317,4.9807222 2.5281153,4.5455974 3.1443023,4.2073029 4.109375,3.9721541 5.5445544,3.6224594 7.18136,3.5994061 8.6442788,3.9082831 9.6534963,4.1213666 10.357235,4.423183 10.752622,4.8125 11.159862,5.2134868 11.134175,5.6716667 10.679075,6.1243605 10.26595,6.5353025 9.5152763,6.7566929 8.1875,6.8591819 7.7600616,6.892175 5.8188344,6.9248684 5.578125,6.9031281 Z"
           id="path381"
           transform="translate(283.00021,629)" />
        <path
           style="fill:#008000;stroke-width:0.03125"
           d="M 5.578125,6.9031281 C 3.7814911,6.7408584 2.5676997,6.3091374 2.2567296,5.7217751 2.1518401,5.5236592 2.1592135,5.1731167 2.272317,4.9807222 2.5281153,4.5455974 3.1443023,4.2073029 4.109375,3.9721541 5.5445544,3.6224594 7.18136,3.5994061 8.6442788,3.9082831 9.6534963,4.1213666 10.357235,4.423183 10.752622,4.8125 11.159862,5.2134868 11.134175,5.6716667 10.679075,6.1243605 10.26595,6.5353025 9.5152763,6.7566929 8.1875,6.8591819 7.7600616,6.892175 5.8188344,6.9248684 5.578125,6.9031281 Z"
           id="path452"
           transform="translate(283.00021,629)" />
        <path
           style="fill:#008000;stroke-width:0.03125"
           d="M 5.578125,6.9031281 C 3.7814911,6.7408584 2.5676997,6.3091374 2.2567296,5.7217751 2.1518401,5.5236592 2.1592135,5.1731167 2.272317,4.9807222 2.5281153,4.5455974 3.1443023,4.2073029 4.109375,3.9721541 5.5445544,3.6224594 7.18136,3.5994061 8.6442788,3.9082831 9.6534963,4.1213666 10.357235,4.423183 10.752622,4.8125 11.159862,5.2134868 11.134175,5.6716667 10.679075,6.1243605 10.26595,6.5353025 9.5152763,6.7566929 8.1875,6.8591819 7.7600616,6.892175 5.8188344,6.9248684 5.578125,6.9031281 Z"
           id="path454"
           transform="translate(283.00021,629)" />
        <path
           style="fill:#008000;stroke-width:0.03125"
           d="M 5.578125,6.9031281 C 3.7814911,6.7408584 2.5676997,6.3091374 2.2567296,5.7217751 2.1518401,5.5236592 2.1592135,5.1731167 2.272317,4.9807222 2.5281153,4.5455974 3.1443023,4.2073029 4.109375,3.9721541 5.5445544,3.6224594 7.18136,3.5994061 8.6442788,3.9082831 9.6534963,4.1213666 10.357235,4.423183 10.752622,4.8125 11.159862,5.2134868 11.134175,5.6716667 10.679075,6.1243605 10.26595,6.5353025 9.5152763,6.7566929 8.1875,6.8591819 7.7600616,6.892175 5.8188344,6.9248684 5.578125,6.9031281 Z"
           id="path456"
           transform="translate(283.00021,629)" />
      </g>
      <path
         inkscape:connector-curvature="0"
         d="m 6.555174,3.6689621 c -1.97865,-0.004 -4.74917,0.59448 -4.36893,1.9299 0.27853,0.9782 2.7468,1.37112 4.2822,1.34057 2.39093,-0.0476 3.99564,-0.15186 4.49936,-1.16589 0.66845,-1.34563 -2.32411,-2.10075 -4.41263,-2.10458 z"
         id="path6309"
         style="color:#000000;font-style:normal;font-variant:normal;font-weight:normal;font-stretch:normal;font-size:medium;line-height:normal;font-family:Sans;-inkscape-font-specification:Sans;text-indent:0;text-align:start;text-decoration:none;text-decoration-line:none;letter-spacing:normal;word-spacing:normal;text-transform:none;writing-mode:lr-tb;direction:ltr;baseline-shift:baseline;text-anchor:start;display:inline;overflow:visible;visibility:visible;fill:#bebebe;fill-opacity:1;fill-rule:nonzero;stroke:none;stroke-width:1.7;marker:none;enable-background:accumulate"
         sodipodi:nodetypes="sssss" />
    </g>
  </g>
  <g
     inkscape:groupmode="layer"
     id="layer13"
     inkscape:label="places"
     transform="translate(-283.00021,-629)" />
  <g
     inkscape:groupmode="layer"
     id="layer14"
     inkscape:label="mimetypes"
     transform="translate(-283.00021,-629)" />
  <g
     inkscape:groupmode="layer"
     id="layer15"
     inkscape:label="emblems"
     style="display:inline"
     transform="translate(-283.00021,-629)" />
  <g
     inkscape:groupmode="layer"
     id="g71291"
     inkscape:label="emotes"
     style="display:inline"
     transform="translate(-283.00021,-629)" />
  <g
     inkscape:groupmode="layer"
     id="g4953"
     inkscape:label="categories"
     style="display:inline"
     transform="translate(-283.00021,-629)" />
  <g
     inkscape:groupmode="layer"
     id="layer12"
     inkscape:label="actions"
     style="display:inline"
     transform="translate(-283.00021,-629)" />
</svg>
